<svg width="382" height="516" viewBox="0 0 382 516" fill="none" xmlns="http://www.w3.org/2000/svg">
<g filter="url(#filter0_d_228_3635)">
<path d="M84.7806 387.469C83.2351 387.469 84.7808 414.625 84.7807 447.079L98.6898 463.638L188.033 463.638L188.033 443.105L269.501 443.105L269.501 387.469C217.397 385.923 109.155 387.469 84.7806 387.469Z" fill="#D9D9D9"/>
</g>
<g filter="url(#filter1_d_228_3635)">
<path d="M66.2344 27.8182L66.2344 317.923L119.64 317.923L119.64 243.078L136.442 243.078L136.442 135.117L119.64 135.117L119.64 27.8182L66.2344 27.8182Z" fill="#D9D9D9"/>
</g>
<path d="M116.235 189.969V185.496C116.235 185.375 116.283 185.26 116.369 185.174C116.454 185.089 116.57 185.041 116.691 185.041C116.812 185.041 116.927 185.089 117.013 185.174C117.098 185.26 117.146 185.375 117.146 185.496V189.969C117.413 189.875 117.643 189.7 117.806 189.469C117.97 189.238 118.057 188.963 118.057 188.68V185.496C118.057 185.375 118.105 185.26 118.19 185.174C118.276 185.089 118.392 185.041 118.512 185.041C118.633 185.041 118.749 185.089 118.834 185.174C118.92 185.26 118.968 185.375 118.968 185.496V188.68C118.968 189.205 118.787 189.714 118.455 190.12C118.123 190.527 117.66 190.806 117.146 190.911V197.336C117.146 197.456 117.098 197.572 117.013 197.658C116.927 197.743 116.812 197.791 116.691 197.791C116.57 197.791 116.454 197.743 116.369 197.658C116.283 197.572 116.235 197.456 116.235 197.336V190.911C115.721 190.806 115.259 190.527 114.927 190.12C114.595 189.714 114.414 189.205 114.414 188.68V185.496C114.414 185.375 114.462 185.26 114.547 185.174C114.633 185.089 114.749 185.041 114.869 185.041C114.99 185.041 115.106 185.089 115.191 185.174C115.277 185.26 115.325 185.375 115.325 185.496V188.68C115.325 188.963 115.412 189.238 115.575 189.469C115.738 189.7 115.969 189.875 116.235 189.969ZM122.155 192.277C120.863 191.987 119.878 190.489 119.878 188.684C119.878 186.671 121.101 185.041 122.611 185.041C124.12 185.041 125.343 186.671 125.343 188.684C125.343 190.489 124.358 191.987 123.066 192.277V197.336C123.066 197.456 123.018 197.572 122.933 197.658C122.847 197.743 122.731 197.791 122.611 197.791C122.49 197.791 122.374 197.743 122.289 197.658C122.203 197.572 122.155 197.456 122.155 197.336V192.277ZM122.611 191.416C123.55 191.416 124.432 190.241 124.432 188.684C124.432 187.126 123.55 185.952 122.611 185.952C121.671 185.952 120.789 187.126 120.789 188.684C120.789 190.241 121.671 191.416 122.611 191.416Z" fill="black"/>
<g filter="url(#filter2_d_228_3635)">
<path d="M140.414 0L140.414 68.8833L251.025 68.8833L251.025 38.4157L302.687 38.4157L302.687 -7.09319e-06L140.414 0Z" fill="#D9D9D9"/>
</g>
<path d="M267.196 19.7478V15.2753C267.196 15.1545 267.244 15.0387 267.33 14.9533C267.415 14.8679 267.531 14.8199 267.652 14.8199C267.773 14.8199 267.888 14.8679 267.974 14.9533C268.059 15.0387 268.107 15.1545 268.107 15.2753V19.7478C268.374 19.6536 268.604 19.4791 268.767 19.2483C268.931 19.0175 269.018 18.7418 269.018 18.4592V15.2753C269.018 15.1545 269.066 15.0387 269.151 14.9533C269.237 14.8679 269.352 14.8199 269.473 14.8199C269.594 14.8199 269.71 14.8679 269.795 14.9533C269.881 15.0387 269.929 15.1545 269.929 15.2753V18.4592C269.929 18.984 269.747 19.4928 269.416 19.8994C269.084 20.306 268.621 20.5855 268.107 20.6904V27.1146C268.107 27.2354 268.059 27.3512 267.974 27.4366C267.888 27.522 267.773 27.57 267.652 27.57C267.531 27.57 267.415 27.522 267.33 27.4366C267.244 27.3512 267.196 27.2354 267.196 27.1146V20.6904C266.682 20.5855 266.22 20.306 265.888 19.8994C265.556 19.4928 265.375 18.984 265.375 18.4592V15.2753C265.375 15.1545 265.423 15.0387 265.508 14.9533C265.594 14.8679 265.71 14.8199 265.83 14.8199C265.951 14.8199 266.067 14.8679 266.152 14.9533C266.238 15.0387 266.286 15.1545 266.286 15.2753V18.4592C266.286 18.7418 266.373 19.0175 266.536 19.2483C266.699 19.4791 266.93 19.6536 267.196 19.7478ZM273.116 22.0556C271.824 21.766 270.839 20.2679 270.839 18.4628C270.839 16.4501 272.062 14.8199 273.571 14.8199C275.081 14.8199 276.304 16.4501 276.304 18.4628C276.304 20.2679 275.319 21.766 274.027 22.0556V27.1146C274.027 27.2354 273.979 27.3512 273.893 27.4366C273.808 27.522 273.692 27.57 273.571 27.57C273.451 27.57 273.335 27.522 273.249 27.4366C273.164 27.3512 273.116 27.2354 273.116 27.1146V22.0556ZM273.571 21.195C274.511 21.195 275.393 20.0201 275.393 18.4628C275.393 16.9055 274.511 15.7307 273.571 15.7307C272.632 15.7307 271.75 16.9055 271.75 18.4628C271.75 20.0201 272.632 21.195 273.571 21.195Z" fill="black"/>
<path fill-rule="evenodd" clip-rule="evenodd" d="M163.924 21.8572C163.755 21.8572 163.589 21.9042 163.446 21.993C163.302 22.0818 163.186 22.2088 163.11 22.3599L160.378 27.8242C160.314 27.9508 160.281 28.0905 160.281 28.2322V31.8751C160.281 32.1166 160.377 32.3482 160.548 32.519C160.719 32.6898 160.95 32.7858 161.192 32.7858H162.103V42.8037C162.103 43.0452 162.199 43.2768 162.369 43.4476C162.54 43.6184 162.772 43.7144 163.013 43.7144H179.406C179.648 43.7144 179.879 43.6184 180.05 43.4476C180.221 43.2768 180.317 43.0452 180.317 42.8037V32.7858H181.228C181.469 32.7858 181.701 32.6898 181.872 32.519C182.043 32.3482 182.138 32.1166 182.138 31.8751V28.2322C182.138 28.0905 182.105 27.9508 182.042 27.8242L179.31 22.3599C179.234 22.2088 179.118 22.0818 178.974 21.993C178.83 21.9042 178.665 21.8572 178.496 21.8572L163.924 21.8572ZM180.317 28.4471V30.9643L176.674 30.9643V29.1429H174.853V30.9643H172.121V29.1429H170.299V30.9643H167.567V29.1429H165.746V30.9643H162.103V28.4471L164.487 23.6786L177.933 23.6786L180.317 28.4471ZM168.478 36.4286H170.299V34.6072H168.478V36.4286ZM172.121 36.4286H173.942V34.6072H172.121V36.4286ZM170.299 39.1608H168.478V37.3394H170.299V39.1608ZM172.121 39.1608H173.942V37.3394H172.121V39.1608Z" fill="black"/>
<g filter="url(#filter3_d_228_3635)">
<path d="M132.469 258.312L132.469 327.196L279.531 327.196L279.531 258.312L132.469 258.312Z" fill="#D9D9D9"/>
</g>
<path d="M258.001 293.956V289.484C258.001 289.363 258.049 289.247 258.134 289.162C258.22 289.076 258.336 289.028 258.456 289.028C258.577 289.028 258.693 289.076 258.778 289.162C258.864 289.247 258.912 289.363 258.912 289.484V293.956C259.178 293.862 259.409 293.688 259.572 293.457C259.735 293.226 259.823 292.95 259.823 292.668V289.484C259.823 289.363 259.871 289.247 259.956 289.162C260.041 289.076 260.157 289.028 260.278 289.028C260.399 289.028 260.515 289.076 260.6 289.162C260.685 289.247 260.733 289.363 260.733 289.484V292.668C260.733 293.193 260.552 293.701 260.22 294.108C259.888 294.515 259.426 294.794 258.912 294.899V301.323C258.912 301.444 258.864 301.56 258.778 301.645C258.693 301.731 258.577 301.778 258.456 301.778C258.336 301.778 258.22 301.731 258.134 301.645C258.049 301.56 258.001 301.444 258.001 301.323V294.899C257.487 294.794 257.025 294.515 256.693 294.108C256.361 293.701 256.18 293.193 256.18 292.668V289.484C256.18 289.363 256.228 289.247 256.313 289.162C256.398 289.076 256.514 289.028 256.635 289.028C256.756 289.028 256.872 289.076 256.957 289.162C257.042 289.247 257.09 289.363 257.09 289.484V292.668C257.09 292.95 257.178 293.226 257.341 293.457C257.504 293.688 257.735 293.862 258.001 293.956ZM263.921 296.264C262.628 295.974 261.644 294.476 261.644 292.671C261.644 290.659 262.867 289.028 264.376 289.028C265.885 289.028 267.108 290.659 267.108 292.671C267.108 294.476 266.124 295.974 264.831 296.264V301.323C264.831 301.444 264.784 301.56 264.698 301.645C264.613 301.731 264.497 301.778 264.376 301.778C264.255 301.778 264.14 301.731 264.054 301.645C263.969 301.56 263.921 301.444 263.921 301.323V296.264ZM264.376 295.403C265.316 295.403 266.198 294.229 266.198 292.671C266.198 291.114 265.316 289.939 264.376 289.939C263.436 289.939 262.555 291.114 262.555 292.671C262.555 294.229 263.436 295.403 264.376 295.403Z" fill="black"/>
<path d="M165.583 301.364H173.531V293.416L176.181 294.741L177.506 290.105L174.856 286.793H172.869C172.869 287.455 171.147 288.78 169.557 288.78C167.968 288.78 166.246 287.455 166.246 286.793H164.259L161.609 290.105L162.934 294.741L165.583 293.416V301.364Z" stroke="black" stroke-width="1.32468"/>
<g filter="url(#filter4_d_228_3635)">
<path d="M5.29686 26.0001L5.29688 363.131L27.1541 363.131L27.1541 26.0001L5.29686 26.0001Z" fill="#EAEAEA"/>
</g>
<g filter="url(#filter5_d_228_3635)">
<path d="M6.625 451.053L6.625 504.703L52.3264 504.703L52.3264 451.053L6.625 451.053Z" fill="#D9D9D9"/>
</g>
<path d="M25.1853 469.754C24.8569 469.754 24.6264 469.687 24.4938 469.554C24.3612 469.421 24.2946 469.19 24.2939 468.863C24.2939 468.237 24.4425 467.658 24.7396 467.127C25.0368 466.595 25.4356 466.157 25.936 465.813L28.8682 463.843C29.181 463.624 29.5329 463.514 29.9238 463.514C30.3148 463.514 30.6667 463.624 30.9794 463.843L33.9117 465.813C34.4121 466.157 34.8109 466.595 35.108 467.127C35.4052 467.658 35.5537 468.237 35.5537 468.863C35.5537 469.191 35.4871 469.422 35.3539 469.555C35.2206 469.688 34.9901 469.755 34.6623 469.754H25.1853ZM19.6024 480.028V470.387C19.3209 470.215 19.0941 469.993 18.9221 469.719C18.7501 469.446 18.6641 469.129 18.6641 468.769C18.6641 468.408 18.8517 467.971 19.2271 467.455C19.6024 466.94 20.0403 466.439 20.5407 465.954C21.0411 466.439 21.479 466.939 21.8543 467.455C22.2297 467.971 22.4173 468.409 22.4173 468.769C22.4173 469.128 22.3313 469.445 22.1593 469.719C21.9873 469.993 21.7605 470.216 21.479 470.386V474.399H23.3556V472.522C23.3556 472.131 23.4807 471.756 23.731 471.396C23.9812 471.036 24.3409 470.802 24.81 470.692H35.0376C35.5068 470.802 35.8665 471.036 36.1167 471.396C36.3669 471.756 36.492 472.131 36.492 472.522V474.399H38.3687V470.387C38.0872 470.215 37.8604 469.993 37.6884 469.719C37.5164 469.446 37.4303 469.129 37.4303 468.769C37.4303 468.408 37.618 467.971 37.9933 467.455C38.3687 466.94 38.8065 466.439 39.307 465.954C39.8074 466.439 40.2453 466.939 40.6206 467.455C40.9959 467.971 41.1836 468.409 41.1836 468.769C41.1836 469.128 41.0976 469.445 40.9256 469.719C40.7535 469.993 40.5268 470.216 40.2453 470.387V480.028C40.2453 480.545 40.0617 480.987 39.6945 481.354C39.3273 481.722 38.8854 481.906 38.3687 481.905H32.7388C32.4729 481.905 32.2502 481.815 32.0707 481.635C31.8912 481.455 31.8011 481.232 31.8005 480.967V478.152C31.8005 477.636 31.6169 477.194 31.2497 476.827C30.8825 476.46 30.4405 476.276 29.9238 476.275C29.4071 476.275 28.9655 476.459 28.5989 476.827C28.2324 477.195 28.0485 477.637 28.0472 478.152V480.967C28.0472 481.233 27.9571 481.456 27.777 481.636C27.5968 481.816 27.3741 481.906 27.1089 481.905H21.479C20.9629 481.905 20.5213 481.722 20.1541 481.354C19.7869 480.987 19.603 480.545 19.6024 480.028Z" fill="black"/>
<path d="M18.2367 488.718L19.8032 488.718L21.7049 493.056L21.5419 493.056L23.4073 488.718L24.8743 488.718L24.9014 489.062L24.34 489.18C24.334 489.265 24.331 489.424 24.331 489.66C24.337 489.889 24.343 490.137 24.3491 490.402L24.3853 492.06C24.3913 492.361 24.3974 492.615 24.4034 492.82C24.4094 493.019 24.4155 493.179 24.4215 493.3C24.4275 493.421 24.4336 493.511 24.4396 493.572L24.992 493.69L24.9739 494.034L23.0541 494.034L23.027 493.69L23.5794 493.572C23.5854 493.499 23.5884 493.415 23.5884 493.318C23.5884 493.222 23.5884 493.086 23.5884 492.911C23.5884 492.736 23.5854 492.497 23.5794 492.195L23.5612 488.981L23.7967 488.981L21.6053 494.061L21.2883 494.061L19.0426 488.972L19.278 488.972L19.2871 492.051C19.2871 492.552 19.2871 492.917 19.2871 493.146C19.2931 493.37 19.2992 493.508 19.3052 493.563L19.921 493.69L19.8938 494.034L18.1189 494.034L18.0918 493.69L18.7075 493.563C18.7136 493.521 18.7166 493.442 18.7166 493.327C18.7226 493.213 18.7287 493.062 18.7347 492.875C18.7407 492.681 18.7438 492.455 18.7438 492.195L18.7709 490.402C18.777 490.137 18.777 489.895 18.7709 489.678C18.7709 489.455 18.7709 489.292 18.7709 489.189L18.2185 489.062L18.2367 488.718ZM27.2015 494.106C26.96 494.106 26.7457 494.058 26.5586 493.961C26.3714 493.865 26.2235 493.741 26.1149 493.59C26.0122 493.439 25.9609 493.282 25.9609 493.119C25.9609 492.914 26.0273 492.745 26.1601 492.612C26.293 492.479 26.5103 492.364 26.8121 492.268L28.1886 491.806L28.1886 491.344C28.1886 491.193 28.1433 491.057 28.0527 490.937C27.9622 490.81 27.8414 490.71 27.6905 490.638C27.5396 490.565 27.3706 490.529 27.1834 490.529C27.0325 490.529 26.9299 490.562 26.8755 490.629C26.8212 490.689 26.788 490.813 26.7759 491L26.7578 491.38C26.5405 491.429 26.3563 491.423 26.2054 491.362C26.0545 491.296 25.979 491.19 25.979 491.045C25.979 490.943 26.0213 490.84 26.1058 490.738C26.1964 490.635 26.3141 490.538 26.459 490.448C26.6039 490.351 26.7608 490.27 26.9299 490.203C27.0989 490.137 27.2649 490.092 27.4279 490.067C27.8746 490.067 28.2308 490.185 28.4964 490.421C28.7681 490.656 28.907 490.964 28.913 491.344L28.8949 492.866C28.8949 492.98 28.8979 493.092 28.9039 493.201C28.916 493.309 28.9311 493.391 28.9492 493.445L29.5288 493.554L29.5288 493.834L29.085 493.997C29.0005 494.028 28.922 494.052 28.8496 494.07C28.7772 494.094 28.7168 494.106 28.6685 494.106C28.4814 494.106 28.3606 494 28.3063 493.789L28.2067 493.436L28.3425 493.436C28.1433 493.659 27.9501 493.828 27.763 493.943C27.5818 494.052 27.3947 494.106 27.2015 494.106ZM27.446 493.572C27.5849 493.572 27.7147 493.542 27.8354 493.481C27.9561 493.415 28.0739 493.315 28.1886 493.182L28.1886 492.232L27.1744 492.503C27.0295 492.54 26.9238 492.597 26.8574 492.675C26.797 492.754 26.7669 492.853 26.7669 492.974C26.7669 493.125 26.8333 493.264 26.9661 493.391C27.1049 493.511 27.2649 493.572 27.446 493.572ZM31.4938 494.106C31.2704 494.106 31.0471 494.082 30.8237 494.034C30.6003 493.979 30.4102 493.91 30.2532 493.825L30.2079 492.856L30.6516 492.856L30.8327 493.508C31.044 493.653 31.2855 493.726 31.5572 493.726C31.7624 493.726 31.9284 493.678 32.0552 493.581C32.182 493.478 32.2454 493.342 32.2454 493.173C32.2454 493.016 32.188 492.881 32.0733 492.766C31.9586 492.645 31.7353 492.515 31.4032 492.377C30.9746 492.189 30.6728 492.011 30.4977 491.842C30.3226 491.667 30.2351 491.444 30.2351 491.172C30.2351 490.955 30.2985 490.765 30.4252 490.602C30.5581 490.433 30.7392 490.303 30.9686 490.212C31.198 490.116 31.4636 490.067 31.7655 490.067C31.9345 490.067 32.1065 490.083 32.2816 490.113C32.4567 490.143 32.6016 490.182 32.7163 490.23L32.8159 491.172L32.3903 491.172L32.1729 490.556C32.1126 490.52 32.0401 490.493 31.9556 490.475C31.8711 490.451 31.7805 490.439 31.684 490.439C31.4727 490.439 31.3036 490.49 31.1768 490.593C31.0501 490.689 30.9867 490.816 30.9867 490.973C30.9867 491.154 31.0561 491.302 31.195 491.417C31.3338 491.525 31.5783 491.661 31.9284 491.824C32.3269 492.005 32.6046 492.183 32.7615 492.358C32.9185 492.534 32.997 492.745 32.997 492.992C32.997 493.318 32.8551 493.587 32.5714 493.798C32.2876 494.004 31.9284 494.106 31.4938 494.106ZM33.4769 496.125L33.3049 495.818C33.6248 495.637 33.8573 495.422 34.0021 495.175C34.147 494.927 34.2195 494.598 34.2195 494.188L34.2285 491.815C34.2285 491.562 34.2195 491.35 34.2014 491.181C34.1832 491.012 34.1682 490.897 34.1561 490.837L33.5494 490.719L33.5494 490.421L34.8352 490.086L34.9711 490.212C34.959 490.369 34.9469 490.538 34.9348 490.719C34.9288 490.894 34.9258 491.121 34.9258 491.399L34.9348 494.052C34.9348 494.269 34.9047 494.477 34.8443 494.677C34.79 494.876 34.7024 495.063 34.5817 495.238C34.4609 495.413 34.31 495.573 34.1289 495.718C33.9478 495.869 33.7305 496.005 33.4769 496.125ZM34.5817 489.062C34.4308 489.062 34.298 489.011 34.1832 488.908C34.0746 488.806 34.0203 488.679 34.0203 488.528C34.0203 488.377 34.0746 488.25 34.1832 488.148C34.298 488.045 34.4308 487.994 34.5817 487.994C34.7386 487.994 34.8684 488.045 34.9711 488.148C35.0737 488.25 35.125 488.377 35.125 488.528C35.125 488.679 35.0737 488.806 34.9711 488.908C34.8684 489.011 34.7386 489.062 34.5817 489.062ZM35.8947 494.034L35.8766 493.699L36.4833 493.572C36.4894 493.548 36.4924 493.505 36.4924 493.445C36.4984 493.385 36.5045 493.288 36.5105 493.155C36.5165 493.023 36.5195 492.838 36.5195 492.603L36.5195 492.005C36.5195 491.758 36.5135 491.531 36.5014 491.326C36.4894 491.121 36.4743 490.961 36.4562 490.846L35.8494 490.719L35.8494 490.421L37.1353 490.086L37.2711 490.212C37.253 490.399 37.2379 490.584 37.2259 490.765C37.2198 490.946 37.2168 491.157 37.2168 491.399L37.2168 492.54C37.2168 492.817 37.2198 493.047 37.2259 493.228C37.2379 493.409 37.25 493.524 37.2621 493.572L37.8688 493.699L37.8507 494.034L35.8947 494.034ZM36.8727 489.062C36.7218 489.062 36.589 489.011 36.4743 488.908C36.3656 488.806 36.3113 488.679 36.3113 488.528C36.3113 488.377 36.3656 488.25 36.4743 488.148C36.589 488.045 36.7218 487.994 36.8727 487.994C37.0297 487.994 37.1595 488.045 37.2621 488.148C37.3647 488.25 37.416 488.377 37.416 488.528C37.416 488.679 37.3647 488.806 37.2621 488.908C37.1595 489.011 37.0297 489.062 36.8727 489.062ZM41.5453 494.133L41.4095 494.016L41.4185 493.427L41.3914 493.418C41.2103 493.671 41.0231 493.85 40.8299 493.952C40.6428 494.055 40.4436 494.106 40.2323 494.106C39.8882 494.106 39.5803 494.028 39.3086 493.871C39.043 493.708 38.8317 493.484 38.6747 493.201C38.5178 492.917 38.4393 492.591 38.4393 492.223C38.4393 491.903 38.4936 491.61 38.6023 491.344C38.711 491.079 38.8589 490.852 39.046 490.665C39.2392 490.472 39.4565 490.324 39.698 490.221C39.9395 490.119 40.19 490.067 40.4496 490.067C40.6186 490.067 40.7907 490.089 40.9658 490.131C41.1408 490.173 41.2887 490.239 41.4095 490.33C41.4095 490.221 41.4065 490.079 41.4004 489.904C41.4004 489.729 41.3974 489.548 41.3914 489.361C41.3914 489.168 41.3883 488.999 41.3823 488.854C41.3823 488.703 41.3793 488.6 41.3733 488.546L40.6669 488.419L40.6488 488.121L41.98 487.749L42.143 487.876C42.1309 488.25 42.1218 488.613 42.1158 488.963C42.1098 489.313 42.1067 489.678 42.1067 490.058L42.0977 492.141C42.0977 492.449 42.1037 492.715 42.1158 492.938C42.1339 493.155 42.146 493.309 42.152 493.4L42.7316 493.545L42.7316 493.844L41.5453 494.133ZM40.4587 493.499C40.6337 493.499 40.7967 493.463 40.9476 493.391C41.0986 493.312 41.2525 493.176 41.4095 492.983L41.4095 491.036C41.2948 490.831 41.1499 490.686 40.9748 490.602C40.7997 490.517 40.6247 490.475 40.4496 490.475C40.0693 490.475 39.7704 490.617 39.5531 490.901C39.3418 491.178 39.2362 491.54 39.2362 491.987C39.2362 492.464 39.3539 492.835 39.5893 493.101C39.8308 493.367 40.1206 493.499 40.4587 493.499Z" fill="black"/>
<path d="M342.305 367.001L338.112 366.957C337.557 366.951 337.026 366.67 336.638 366.175C336.25 365.68 336.036 365.012 336.044 364.318L336.207 348.617C336.214 347.923 336.442 347.26 336.84 346.773C337.239 346.286 337.775 346.016 338.331 346.022L342.523 346.065L342.496 348.682L338.303 348.639L338.14 364.34L342.332 364.384L342.305 367.001Z" fill="black"/>
<path d="M347.917 362.981L349.42 361.521L345.355 357.335L354.939 357.435C355.217 357.437 355.484 357.33 355.683 357.135C355.881 356.941 355.995 356.675 355.998 356.397C356 356.119 355.893 355.852 355.698 355.653C355.504 355.455 355.238 355.341 354.96 355.338L345.358 355.238L349.572 351.145L348.112 349.642L341.345 356.213L347.917 362.981Z" fill="black"/>
<path fill-rule="evenodd" clip-rule="evenodd" d="M346.337 398.99C347.601 397.843 348.771 396.596 349.836 395.262C352.078 392.445 353.442 389.668 353.534 387.198C353.571 386.194 353.404 385.194 353.046 384.256C352.687 383.318 352.142 382.462 351.445 381.739C350.748 381.016 349.912 380.441 348.988 380.048C348.064 379.655 347.07 379.453 346.065 379.453C345.061 379.453 344.067 379.655 343.143 380.048C342.218 380.441 341.383 381.016 340.685 381.739C339.988 382.462 339.444 383.318 339.085 384.256C338.726 385.194 338.56 386.194 338.597 387.198C338.69 389.668 340.055 392.445 342.296 395.262C343.361 396.596 344.53 397.843 345.794 398.99C345.916 399.1 346.007 399.18 346.066 399.23L346.337 398.99ZM345.255 400.27C345.255 400.27 337.273 393.548 337.273 386.934C337.273 384.602 338.2 382.366 339.849 380.717C341.498 379.068 343.734 378.142 346.066 378.142C348.398 378.142 350.634 379.068 352.283 380.717C353.932 382.366 354.858 384.602 354.858 386.934C354.858 393.548 346.877 400.27 346.877 400.27C346.433 400.679 345.702 400.675 345.255 400.27ZM346.066 390.012C346.882 390.012 347.665 389.687 348.242 389.11C348.819 388.533 349.143 387.751 349.143 386.934C349.143 386.118 348.819 385.335 348.242 384.758C347.665 384.181 346.882 383.857 346.066 383.857C345.25 383.857 344.467 384.181 343.89 384.758C343.313 385.335 342.989 386.118 342.989 386.934C342.989 387.751 343.313 388.533 343.89 389.11C344.467 389.687 345.25 390.012 346.066 390.012ZM346.066 391.331C344.9 391.331 343.782 390.867 342.957 390.043C342.133 389.218 341.67 388.1 341.67 386.934C341.67 385.768 342.133 384.65 342.957 383.826C343.782 383.001 344.9 382.538 346.066 382.538C347.232 382.538 348.35 383.001 349.175 383.826C349.999 384.65 350.462 385.768 350.462 386.934C350.462 388.1 349.999 389.218 349.175 390.043C348.35 390.867 347.232 391.331 346.066 391.331Z" fill="#F83838"/>
<path d="M316.776 420.575L316.741 420.133L317.416 419.97C317.424 419.939 317.432 419.873 317.44 419.772C317.447 419.663 317.451 419.493 317.451 419.26C317.459 419.027 317.463 418.713 317.463 418.317L317.475 415.953C317.475 415.565 317.471 415.262 317.463 415.045C317.455 414.82 317.447 414.657 317.44 414.556C317.44 414.448 317.436 414.382 317.428 414.358L316.706 414.184L316.741 413.741H319.221C319.989 413.741 320.587 413.912 321.014 414.253C321.441 414.587 321.654 415.072 321.654 415.709C321.654 416.143 321.542 416.52 321.317 416.838C321.099 417.156 320.804 417.405 320.432 417.583C320.059 417.754 319.644 417.839 319.186 417.839C319.015 417.839 318.852 417.832 318.697 417.816C318.55 417.793 318.41 417.77 318.278 417.746V417.118C318.456 417.172 318.612 417.211 318.744 417.234C318.883 417.257 319.019 417.269 319.151 417.269C319.609 417.269 319.966 417.156 320.222 416.931C320.478 416.698 320.606 416.341 320.606 415.86C320.606 415.309 320.463 414.905 320.176 414.649C319.889 414.385 319.528 414.253 319.093 414.253H318.476C318.476 414.3 318.472 414.409 318.464 414.579C318.464 414.75 318.46 414.956 318.453 415.197C318.453 415.429 318.453 415.682 318.453 415.953L318.464 418.317C318.464 418.713 318.468 419.027 318.476 419.26C318.484 419.485 318.491 419.652 318.499 419.76C318.507 419.861 318.511 419.927 318.511 419.958L319.477 420.11L319.442 420.575H316.776ZM322.458 420.575L322.434 420.145L323.214 419.982C323.222 419.951 323.226 419.896 323.226 419.819C323.234 419.741 323.242 419.617 323.249 419.446C323.257 419.275 323.261 419.039 323.261 418.736V417.967C323.261 417.649 323.253 417.358 323.238 417.094C323.222 416.83 323.203 416.625 323.18 416.477L322.399 416.314V415.93L324.053 415.499L324.227 415.662C324.204 415.903 324.185 416.14 324.169 416.372C324.161 416.605 324.157 416.877 324.157 417.187V418.654C324.157 419.011 324.161 419.306 324.169 419.539C324.185 419.772 324.2 419.92 324.216 419.982L324.996 420.145L324.972 420.575H322.458ZM323.715 414.184C323.521 414.184 323.35 414.118 323.203 413.986C323.063 413.854 322.993 413.691 322.993 413.497C322.993 413.303 323.063 413.14 323.203 413.008C323.35 412.876 323.521 412.81 323.715 412.81C323.917 412.81 324.084 412.876 324.216 413.008C324.348 413.14 324.414 413.303 324.414 413.497C324.414 413.691 324.348 413.854 324.216 413.986C324.084 414.118 323.917 414.184 323.715 414.184ZM325.624 420.575L325.601 420.156L326.323 419.982C326.331 419.927 326.335 419.854 326.335 419.76C326.342 419.667 326.35 419.539 326.358 419.376C326.366 419.213 326.37 419 326.37 418.736L326.381 417.839C326.381 417.583 326.37 417.331 326.346 417.083C326.331 416.826 326.311 416.625 326.288 416.477L325.543 416.314V415.93L327.103 415.499L327.301 415.686L327.243 416.303L327.278 416.314C327.549 416.019 327.817 415.806 328.081 415.674C328.345 415.542 328.632 415.476 328.943 415.476C329.23 415.476 329.498 415.55 329.746 415.697C330.002 415.837 330.208 416.054 330.363 416.349C330.526 416.644 330.608 417.021 330.608 417.478V418.771C330.608 419.05 330.611 419.303 330.619 419.528C330.635 419.753 330.654 419.904 330.677 419.982L331.399 420.156L331.364 420.575H329.024L329.001 420.156L329.676 419.982C329.684 419.92 329.692 419.842 329.699 419.749C329.707 419.656 329.711 419.539 329.711 419.4C329.719 419.252 329.723 419.07 329.723 418.852V417.595C329.723 417.246 329.661 416.97 329.536 416.768C329.42 416.559 329.273 416.411 329.094 416.326C328.915 416.233 328.733 416.186 328.547 416.186C328.291 416.186 328.05 416.252 327.825 416.384C327.608 416.508 327.421 416.683 327.266 416.908V418.654C327.266 419.011 327.27 419.303 327.278 419.528C327.293 419.745 327.309 419.896 327.324 419.982L328.046 420.156L328.011 420.575H325.624ZM335.684 419.854C335.536 420.11 335.334 420.312 335.078 420.459C334.822 420.599 334.554 420.669 334.275 420.669C333.802 420.669 333.413 420.525 333.111 420.238C332.808 419.951 332.657 419.52 332.657 418.945L332.692 416.163H331.877V415.918L333.378 414.556H333.6L333.576 415.895L333.565 418.759C333.565 419.163 333.65 419.462 333.821 419.656C333.999 419.85 334.248 419.947 334.566 419.947C334.745 419.947 334.908 419.912 335.055 419.842C335.21 419.772 335.35 419.679 335.474 419.563L335.684 419.854ZM333.157 416.163V415.581H335.334V416.163H333.157ZM340.911 419.76L341.645 419.947V420.331L340.131 420.704L339.957 420.552L339.968 419.819L339.933 419.807C339.708 420.125 339.475 420.35 339.235 420.482C339.002 420.606 338.75 420.669 338.478 420.669C337.958 420.669 337.523 420.509 337.174 420.191C336.825 419.865 336.65 419.38 336.65 418.736V417.735C336.65 417.517 336.642 417.308 336.627 417.106C336.619 416.896 336.607 416.687 336.592 416.477L335.8 416.314V415.93L337.384 415.499L337.593 415.686C337.578 415.926 337.566 416.182 337.558 416.454C337.55 416.726 337.547 417.009 337.547 417.304L337.535 418.585C337.535 419.066 337.647 419.411 337.873 419.621C338.098 419.823 338.385 419.923 338.734 419.923C338.944 419.923 339.157 419.869 339.374 419.76C339.592 419.652 339.782 419.466 339.945 419.202V417.851C339.945 417.68 339.941 417.513 339.933 417.35C339.933 417.18 339.929 417.021 339.922 416.873C339.914 416.718 339.902 416.586 339.887 416.477L339.037 416.314V415.93L340.678 415.499L340.853 415.662C340.845 415.88 340.838 416.074 340.83 416.244C340.83 416.415 340.83 416.586 340.83 416.757C340.83 416.92 340.83 417.106 340.83 417.315V418.142C340.83 418.569 340.838 418.914 340.853 419.178C340.876 419.434 340.896 419.629 340.911 419.76ZM344.544 420.575L344.521 420.156L345.242 419.982C345.25 419.927 345.254 419.857 345.254 419.772C345.262 419.687 345.27 419.563 345.277 419.4C345.285 419.237 345.289 419.015 345.289 418.736L345.301 417.828C345.308 417.665 345.304 417.498 345.289 417.327C345.281 417.156 345.27 416.997 345.254 416.85C345.239 416.695 345.223 416.57 345.207 416.477L344.462 416.314V415.93L346.022 415.499L346.22 415.686L346.162 416.314L346.197 416.326C346.438 416.023 346.686 415.806 346.942 415.674C347.206 415.542 347.474 415.476 347.746 415.476C348.017 415.476 348.281 415.55 348.537 415.697C348.793 415.845 349.003 416.07 349.166 416.372C349.337 416.675 349.422 417.063 349.422 417.537L349.434 418.771C349.434 419.05 349.438 419.303 349.445 419.528C349.461 419.745 349.48 419.896 349.504 419.982L350.202 420.156L350.167 420.575H347.897L347.862 420.156L348.502 419.982C348.51 419.92 348.518 419.842 348.526 419.749C348.533 419.656 348.537 419.539 348.537 419.4C348.545 419.252 348.549 419.07 348.549 418.852L348.537 417.572C348.537 417.238 348.483 416.97 348.374 416.768C348.273 416.566 348.138 416.419 347.967 416.326C347.796 416.233 347.614 416.186 347.42 416.186C347.179 416.186 346.954 416.244 346.744 416.361C346.535 416.477 346.348 416.66 346.185 416.908V418.654C346.185 419.011 346.189 419.303 346.197 419.528C346.213 419.745 346.228 419.896 346.244 419.982L346.931 420.156L346.896 420.575H344.544ZM351.11 420.575L351.075 420.156L351.739 419.982C351.747 419.92 351.751 419.842 351.751 419.749C351.758 419.656 351.766 419.539 351.774 419.4C351.782 419.252 351.786 419.07 351.786 418.852V417.583C351.786 417.242 351.727 416.97 351.611 416.768C351.495 416.566 351.347 416.419 351.169 416.326C350.998 416.233 350.823 416.186 350.645 416.186C350.381 416.186 350.136 416.252 349.911 416.384C349.686 416.516 349.484 416.718 349.306 416.989L349.084 416.559C349.356 416.186 349.643 415.914 349.946 415.744C350.257 415.565 350.583 415.476 350.924 415.476C351.25 415.476 351.545 415.554 351.809 415.709C352.073 415.864 352.282 416.089 352.438 416.384C352.593 416.679 352.67 417.036 352.67 417.455V418.771C352.67 419.05 352.674 419.303 352.682 419.528C352.698 419.745 352.713 419.896 352.729 419.982L353.45 420.156L353.427 420.575H351.11ZM356.035 420.669C355.725 420.669 355.449 420.606 355.209 420.482C354.968 420.358 354.778 420.199 354.638 420.005C354.506 419.811 354.44 419.609 354.44 419.4C354.44 419.136 354.525 418.918 354.696 418.748C354.867 418.577 355.146 418.429 355.535 418.305L357.304 417.711V417.118C357.304 416.924 357.246 416.749 357.13 416.594C357.013 416.431 356.858 416.303 356.664 416.209C356.47 416.116 356.252 416.07 356.012 416.07C355.818 416.07 355.686 416.112 355.616 416.198C355.546 416.275 355.503 416.435 355.488 416.675L355.465 417.164C355.185 417.226 354.949 417.218 354.754 417.141C354.56 417.055 354.463 416.92 354.463 416.733C354.463 416.601 354.518 416.469 354.626 416.338C354.743 416.206 354.894 416.081 355.08 415.965C355.267 415.841 355.469 415.736 355.686 415.651C355.903 415.565 356.117 415.507 356.326 415.476C356.901 415.476 357.359 415.627 357.7 415.93C358.049 416.233 358.228 416.629 358.236 417.118L358.212 419.074C358.212 419.221 358.216 419.365 358.224 419.504C358.24 419.644 358.259 419.749 358.282 419.819L359.027 419.958V420.319L358.457 420.529C358.348 420.568 358.247 420.599 358.154 420.622C358.061 420.653 357.983 420.669 357.921 420.669C357.681 420.669 357.525 420.533 357.456 420.261L357.328 419.807H357.502C357.246 420.094 356.998 420.312 356.757 420.459C356.524 420.599 356.284 420.669 356.035 420.669ZM356.35 419.982C356.528 419.982 356.695 419.943 356.85 419.865C357.005 419.78 357.157 419.652 357.304 419.481V418.259L356 418.608C355.814 418.654 355.678 418.728 355.593 418.829C355.515 418.93 355.476 419.058 355.476 419.213C355.476 419.407 355.562 419.586 355.732 419.749C355.911 419.904 356.117 419.982 356.35 419.982ZM361.554 420.669C361.267 420.669 360.979 420.638 360.692 420.575C360.405 420.506 360.161 420.416 359.959 420.308L359.901 419.062H360.471L360.704 419.9C360.976 420.086 361.286 420.18 361.635 420.18C361.899 420.18 362.113 420.117 362.276 419.993C362.439 419.861 362.52 419.687 362.52 419.469C362.52 419.268 362.446 419.093 362.299 418.945C362.151 418.79 361.864 418.623 361.437 418.445C360.886 418.204 360.498 417.975 360.273 417.758C360.048 417.533 359.935 417.246 359.935 416.896C359.935 416.617 360.017 416.372 360.18 416.163C360.351 415.946 360.584 415.779 360.879 415.662C361.173 415.538 361.515 415.476 361.903 415.476C362.12 415.476 362.342 415.495 362.567 415.534C362.792 415.573 362.978 415.623 363.126 415.686L363.254 416.896H362.706L362.427 416.105C362.349 416.058 362.256 416.023 362.148 416C362.039 415.969 361.922 415.953 361.798 415.953C361.527 415.953 361.309 416.019 361.146 416.151C360.983 416.275 360.902 416.438 360.902 416.64C360.902 416.873 360.991 417.063 361.17 417.211C361.348 417.35 361.662 417.525 362.113 417.735C362.625 417.967 362.982 418.196 363.184 418.422C363.386 418.647 363.486 418.918 363.486 419.237C363.486 419.656 363.304 420.001 362.939 420.273C362.574 420.537 362.113 420.669 361.554 420.669ZM369.25 419.76L369.983 419.947V420.331L368.47 420.704L368.295 420.552L368.307 419.819L368.272 419.807C368.047 420.125 367.814 420.35 367.573 420.482C367.34 420.606 367.088 420.669 366.816 420.669C366.296 420.669 365.862 420.509 365.512 420.191C365.163 419.865 364.988 419.38 364.988 418.736V417.735C364.988 417.517 364.981 417.308 364.965 417.106C364.957 416.896 364.946 416.687 364.93 416.477L364.138 416.314V415.93L365.722 415.499L365.931 415.686C365.916 415.926 365.904 416.182 365.897 416.454C365.889 416.726 365.885 417.009 365.885 417.304L365.873 418.585C365.873 419.066 365.986 419.411 366.211 419.621C366.436 419.823 366.723 419.923 367.072 419.923C367.282 419.923 367.495 419.869 367.713 419.76C367.93 419.652 368.12 419.466 368.283 419.202V417.851C368.283 417.68 368.279 417.513 368.272 417.35C368.272 417.18 368.268 417.021 368.26 416.873C368.252 416.718 368.241 416.586 368.225 416.477L367.375 416.314V415.93L369.017 415.499L369.191 415.662C369.184 415.88 369.176 416.074 369.168 416.244C369.168 416.415 369.168 416.586 369.168 416.757C369.168 416.92 369.168 417.106 369.168 417.315V418.142C369.168 418.569 369.176 418.914 369.191 419.178C369.215 419.434 369.234 419.629 369.25 419.76ZM370.693 420.575L370.67 420.156L371.334 419.982C371.341 419.904 371.349 419.78 371.357 419.609C371.365 419.431 371.372 419.209 371.38 418.945C371.388 418.674 371.392 418.371 371.392 418.037V416.349C371.392 416.054 371.388 415.755 371.38 415.453C371.38 415.142 371.376 414.847 371.369 414.568C371.369 414.288 371.365 414.052 371.357 413.858C371.349 413.664 371.345 413.532 371.345 413.462L370.484 413.345L370.46 412.973L372.102 412.495L372.335 412.658C372.327 412.922 372.319 413.182 372.312 413.438C372.304 413.687 372.296 413.947 372.288 414.219C372.281 414.482 372.277 414.766 372.277 415.068C372.277 415.363 372.277 415.686 372.277 416.035L372.265 418.887C372.265 419.089 372.269 419.268 372.277 419.423C372.284 419.57 372.292 419.691 372.3 419.784C372.308 419.877 372.312 419.943 372.312 419.982L373.033 420.156L373.01 420.575H370.693ZM375.909 420.575H374.582C374.442 420.389 374.334 420.249 374.256 420.156C374.178 420.063 374.097 419.974 374.011 419.889L372.416 418.154H372.09L372.102 417.874L372.544 417.746L374.163 416.14L373.394 416L373.418 415.569H375.758L375.781 416L375.013 416.14L372.929 418.014L373.103 417.595L374.745 419.365C374.846 419.466 374.958 419.582 375.083 419.714C375.215 419.846 375.327 419.954 375.42 420.04L375.944 420.145L375.909 420.575ZM330.835 429.575L330.811 429.133L331.382 428.97L333.78 422.939L334.455 422.532L336.994 428.97L337.576 429.133L337.541 429.575H335.189L335.166 429.133L335.876 428.97L335.189 427.247L335.061 426.886L333.792 423.719L334.06 423.568L332.849 426.886L332.721 427.235L332.104 428.97L332.814 429.133L332.791 429.575H330.835ZM332.465 427.422V426.804C332.612 426.812 332.814 426.82 333.07 426.828C333.326 426.836 333.64 426.839 334.013 426.839C334.378 426.839 334.688 426.836 334.944 426.828C335.208 426.82 335.41 426.812 335.55 426.804V427.422C335.286 427.414 335.022 427.41 334.758 427.41C334.502 427.402 334.254 427.398 334.013 427.398C333.78 427.398 333.536 427.402 333.28 427.41C333.031 427.41 332.759 427.414 332.465 427.422ZM337.96 429.575L337.925 429.156L338.647 428.982C338.655 428.943 338.662 428.873 338.67 428.772C338.678 428.671 338.682 428.535 338.682 428.365C338.69 428.194 338.693 427.984 338.693 427.736L338.705 426.828C338.705 426.572 338.693 426.319 338.67 426.071C338.655 425.823 338.635 425.625 338.612 425.477L337.867 425.314V424.93L339.427 424.499L339.59 424.662L339.543 425.64L339.578 425.652C339.811 425.202 340.048 424.899 340.288 424.744C340.529 424.581 340.754 424.499 340.964 424.499C341.142 424.499 341.29 424.546 341.406 424.639C341.53 424.724 341.592 424.856 341.592 425.035C341.592 425.221 341.526 425.365 341.394 425.466C341.27 425.559 341.111 425.605 340.917 425.605C340.777 425.605 340.642 425.574 340.51 425.512C340.385 425.45 340.265 425.365 340.149 425.256L340.358 425.326C340.211 425.419 340.071 425.551 339.939 425.722C339.807 425.885 339.687 426.09 339.578 426.339L339.59 427.422C339.598 427.616 339.605 427.817 339.613 428.027C339.621 428.237 339.629 428.427 339.636 428.597C339.644 428.76 339.652 428.889 339.66 428.982L340.673 429.133L340.649 429.575H337.96ZM344.445 429.669C343.995 429.669 343.587 429.568 343.222 429.366C342.865 429.164 342.578 428.877 342.361 428.504C342.151 428.124 342.046 427.678 342.046 427.165C342.046 426.614 342.159 426.137 342.384 425.733C342.609 425.33 342.904 425.019 343.269 424.802C343.634 424.577 344.026 424.468 344.445 424.476C345.05 424.484 345.524 424.686 345.865 425.081C346.207 425.477 346.378 426.036 346.378 426.758V426.967H342.803V426.455H345.609L345.481 426.607V426.362C345.481 425.912 345.38 425.566 345.178 425.326C344.977 425.085 344.701 424.965 344.352 424.965C344.134 424.965 343.925 425.031 343.723 425.163C343.521 425.287 343.358 425.481 343.234 425.745C343.11 426.001 343.048 426.327 343.048 426.723V426.863C343.048 427.499 343.203 427.996 343.513 428.353C343.832 428.71 344.239 428.889 344.736 428.889C345.008 428.889 345.252 428.834 345.469 428.726C345.687 428.617 345.896 428.442 346.098 428.202L346.389 428.469C346.172 428.873 345.896 429.176 345.563 429.378C345.229 429.572 344.856 429.669 344.445 429.669ZM349.079 429.669C348.768 429.669 348.493 429.606 348.252 429.482C348.011 429.358 347.821 429.199 347.682 429.005C347.55 428.811 347.484 428.609 347.484 428.4C347.484 428.136 347.569 427.918 347.74 427.748C347.911 427.577 348.19 427.429 348.578 427.305L350.348 426.711V426.118C350.348 425.924 350.289 425.749 350.173 425.594C350.057 425.431 349.901 425.303 349.707 425.209C349.513 425.116 349.296 425.07 349.055 425.07C348.861 425.07 348.729 425.112 348.66 425.198C348.59 425.275 348.547 425.435 348.531 425.675L348.508 426.164C348.229 426.226 347.992 426.218 347.798 426.141C347.604 426.055 347.507 425.92 347.507 425.733C347.507 425.601 347.561 425.469 347.67 425.338C347.786 425.206 347.938 425.081 348.124 424.965C348.31 424.841 348.512 424.736 348.729 424.651C348.947 424.565 349.16 424.507 349.37 424.476C349.944 424.476 350.402 424.627 350.744 424.93C351.093 425.233 351.271 425.629 351.279 426.118L351.256 428.074C351.256 428.221 351.26 428.365 351.267 428.504C351.283 428.644 351.302 428.749 351.326 428.819L352.071 428.958V429.319L351.5 429.529C351.392 429.568 351.291 429.599 351.198 429.622C351.104 429.653 351.027 429.669 350.965 429.669C350.724 429.669 350.569 429.533 350.499 429.261L350.371 428.807H350.546C350.289 429.094 350.041 429.312 349.801 429.459C349.568 429.599 349.327 429.669 349.079 429.669ZM349.393 428.982C349.572 428.982 349.738 428.943 349.894 428.865C350.049 428.78 350.2 428.652 350.348 428.481V427.259L349.044 427.608C348.857 427.654 348.722 427.728 348.636 427.829C348.559 427.93 348.52 428.058 348.52 428.213C348.52 428.407 348.605 428.586 348.776 428.749C348.954 428.904 349.16 428.982 349.393 428.982ZM354.586 429.575L354.562 429.133L355.133 428.97L357.531 422.939L358.207 422.532L360.745 428.97L361.327 429.133L361.292 429.575H358.94L358.917 429.133L359.627 428.97L358.94 427.247L358.812 426.886L357.543 423.719L357.811 423.568L356.6 426.886L356.472 427.235L355.855 428.97L356.565 429.133L356.542 429.575H354.586ZM356.216 427.422V426.804C356.363 426.812 356.565 426.82 356.821 426.828C357.077 426.836 357.392 426.839 357.764 426.839C358.129 426.839 358.439 426.836 358.696 426.828C358.959 426.82 359.161 426.812 359.301 426.804V427.422C359.037 427.414 358.773 427.41 358.509 427.41C358.253 427.402 358.005 427.398 357.764 427.398C357.531 427.398 357.287 427.402 357.031 427.41C356.782 427.41 356.511 427.414 356.216 427.422Z" fill="black"/>
<path d="M315.643 9L315.608 8.55758L316.284 8.39458C316.292 8.36353 316.299 8.29756 316.307 8.19665C316.315 8.08799 316.319 7.91723 316.319 7.68438C316.326 7.45152 316.33 7.13717 316.33 6.74132L316.342 4.37785C316.342 3.98976 316.338 3.68705 316.33 3.46972C316.323 3.24463 316.315 3.08163 316.307 2.98073C316.307 2.87207 316.303 2.80609 316.295 2.78281L315.574 2.60817L315.608 2.16574H318.088C318.857 2.16574 319.454 2.3365 319.881 2.67802C320.308 3.01178 320.522 3.49689 320.522 4.13336C320.522 4.56802 320.409 4.94446 320.184 5.2627C319.967 5.58093 319.672 5.82931 319.299 6.00783C318.927 6.17859 318.511 6.26397 318.053 6.26397C317.883 6.26397 317.72 6.25621 317.564 6.24068C317.417 6.2174 317.277 6.19411 317.145 6.17083V5.54212C317.324 5.59645 317.479 5.63526 317.611 5.65855C317.751 5.68183 317.887 5.69348 318.019 5.69348C318.476 5.69348 318.834 5.58093 319.09 5.35584C319.346 5.12299 319.474 4.76594 319.474 4.28471C319.474 3.73362 319.33 3.33001 319.043 3.07387C318.756 2.80997 318.395 2.67802 317.96 2.67802H317.343C317.343 2.72459 317.339 2.83326 317.332 3.00402C317.332 3.17478 317.328 3.38046 317.32 3.62108C317.32 3.85393 317.32 4.10619 317.32 4.37785L317.332 6.74132C317.332 7.13717 317.335 7.45152 317.343 7.68438C317.351 7.90947 317.359 8.07635 317.367 8.18501C317.374 8.28592 317.378 8.35189 317.378 8.38294L318.345 8.53429L318.31 9H315.643ZM321.325 9L321.302 8.56922L322.082 8.40622C322.09 8.37518 322.093 8.32084 322.093 8.24323C322.101 8.16561 322.109 8.04142 322.117 7.87066C322.125 7.6999 322.128 7.46317 322.128 7.16046V6.39204C322.128 6.0738 322.121 5.78274 322.105 5.51884C322.09 5.25494 322.07 5.04925 322.047 4.90177L321.267 4.73878V4.35457L322.92 3.92379L323.095 4.08679C323.071 4.3274 323.052 4.56414 323.037 4.79699C323.029 5.02984 323.025 5.30151 323.025 5.61198V7.07896C323.025 7.436 323.029 7.73095 323.037 7.9638C323.052 8.19665 323.068 8.34413 323.083 8.40622L323.863 8.56922L323.84 9H321.325ZM322.582 2.60817C322.388 2.60817 322.218 2.54219 322.07 2.41024C321.93 2.27829 321.861 2.11529 321.861 1.92125C321.861 1.7272 321.93 1.5642 322.07 1.43225C322.218 1.3003 322.388 1.23433 322.582 1.23433C322.784 1.23433 322.951 1.3003 323.083 1.43225C323.215 1.5642 323.281 1.7272 323.281 1.92125C323.281 2.11529 323.215 2.27829 323.083 2.41024C322.951 2.54219 322.784 2.60817 322.582 2.60817ZM324.492 9L324.469 8.58086L325.19 8.40622C325.198 8.35189 325.202 8.27815 325.202 8.18501C325.21 8.09187 325.218 7.9638 325.225 7.8008C325.233 7.63781 325.237 7.42436 325.237 7.16046L325.249 6.26397C325.249 6.00783 325.237 5.75557 325.214 5.50719C325.198 5.25106 325.179 5.04925 325.155 4.90177L324.41 4.73878V4.35457L325.97 3.92379L326.168 4.11007L326.11 4.72713L326.145 4.73878C326.417 4.44383 326.685 4.23038 326.948 4.09843C327.212 3.96648 327.5 3.9005 327.81 3.9005C328.097 3.9005 328.365 3.97424 328.613 4.12171C328.869 4.26143 329.075 4.47876 329.23 4.7737C329.393 5.06865 329.475 5.4451 329.475 5.90305V7.19538C329.475 7.47481 329.479 7.72707 329.487 7.95216C329.502 8.17725 329.521 8.32861 329.545 8.40622L330.267 8.58086L330.232 9H327.892L327.868 8.58086L328.544 8.40622C328.551 8.34413 328.559 8.26651 328.567 8.17337C328.575 8.08023 328.578 7.9638 328.578 7.82409C328.586 7.67661 328.59 7.49421 328.59 7.27688V6.01947C328.59 5.67019 328.528 5.39465 328.404 5.19284C328.287 4.98327 328.14 4.8358 327.961 4.75042C327.783 4.65728 327.6 4.61071 327.414 4.61071C327.158 4.61071 326.917 4.67668 326.692 4.80863C326.475 4.93282 326.289 5.10746 326.133 5.33255V7.07896C326.133 7.436 326.137 7.72707 326.145 7.95216C326.161 8.16949 326.176 8.32084 326.192 8.40622L326.914 8.58086L326.879 9H324.492ZM334.551 8.27815C334.404 8.53429 334.202 8.7361 333.946 8.88357C333.69 9.02329 333.422 9.09314 333.142 9.09314C332.669 9.09314 332.281 8.94955 331.978 8.66236C331.675 8.37518 331.524 7.9444 331.524 7.37002L331.559 4.58742H330.744V4.34293L332.246 2.98073H332.467L332.444 4.31964L332.432 7.18374C332.432 7.58735 332.518 7.88618 332.688 8.08023C332.867 8.27427 333.115 8.37129 333.433 8.37129C333.612 8.37129 333.775 8.33637 333.922 8.26651C334.078 8.19665 334.217 8.10351 334.342 7.98709L334.551 8.27815ZM332.025 4.58742V4.00529H334.202V4.58742H332.025ZM339.779 8.18501L340.512 8.37129V8.7555L338.999 9.12807L338.824 8.97671L338.836 8.24323L338.801 8.23158C338.576 8.54982 338.343 8.77491 338.102 8.90686C337.869 9.03105 337.617 9.09314 337.345 9.09314C336.825 9.09314 336.391 8.93402 336.041 8.61579C335.692 8.2898 335.517 7.80468 335.517 7.16046V6.15918C335.517 5.94185 335.51 5.73229 335.494 5.53048C335.486 5.32091 335.475 5.11134 335.459 4.90177L334.668 4.73878V4.35457L336.251 3.92379L336.461 4.11007C336.445 4.35069 336.433 4.60683 336.426 4.87849C336.418 5.15015 336.414 5.43346 336.414 5.72841L336.402 7.0091C336.402 7.49033 336.515 7.83573 336.74 8.0453C336.965 8.24711 337.252 8.34801 337.602 8.34801C337.811 8.34801 338.025 8.29368 338.242 8.18501C338.459 8.07635 338.649 7.89006 338.812 7.62616V6.27561C338.812 6.10485 338.808 5.93797 338.801 5.77498C338.801 5.60422 338.797 5.4451 338.789 5.29763C338.781 5.14239 338.77 5.01044 338.754 4.90177L337.904 4.73878V4.35457L339.546 3.92379L339.72 4.08679C339.713 4.30412 339.705 4.49816 339.697 4.66892C339.697 4.83968 339.697 5.01044 339.697 5.1812C339.697 5.3442 339.697 5.53048 339.697 5.74005V6.56668C339.697 6.99358 339.705 7.33898 339.72 7.60288C339.744 7.85902 339.763 8.05306 339.779 8.18501ZM343.458 9L343.434 8.58086L344.098 8.40622C344.106 8.32861 344.114 8.20442 344.121 8.03366C344.129 7.85514 344.137 7.63392 344.145 7.37002C344.152 7.09836 344.156 6.79565 344.156 6.46189V4.7737C344.156 4.47876 344.152 4.17993 344.145 3.87722C344.145 3.56675 344.141 3.2718 344.133 2.99237C344.133 2.71295 344.129 2.47621 344.121 2.28217C344.114 2.08813 344.11 1.95617 344.11 1.88632L343.248 1.76989L343.225 1.39733L344.867 0.919976L345.099 1.08297C345.092 1.34687 345.084 1.60689 345.076 1.86303C345.068 2.11141 345.061 2.37143 345.053 2.64309C345.045 2.90699 345.041 3.1903 345.041 3.49301C345.041 3.78796 345.041 4.11007 345.041 4.45935L345.03 7.31181C345.03 7.51362 345.033 7.69214 345.041 7.84737C345.049 7.99485 345.057 8.11516 345.064 8.2083C345.072 8.30144 345.076 8.36741 345.076 8.40622L345.798 8.58086L345.775 9H343.458ZM348.674 9H347.346C347.207 8.81372 347.098 8.674 347.02 8.58086C346.943 8.48772 346.861 8.39846 346.776 8.31308L345.181 6.57832H344.855L344.867 6.2989L345.309 6.17083L346.927 4.56414L346.159 4.42442L346.182 3.99364H348.522L348.546 4.42442L347.777 4.56414L345.693 6.43861L345.868 6.01947L347.509 7.78916C347.61 7.89006 347.723 8.00649 347.847 8.13844C347.979 8.27039 348.092 8.37906 348.185 8.46444L348.709 8.56922L348.674 9ZM351.538 9.09314C351.088 9.09314 350.68 8.99224 350.315 8.79043C349.958 8.58863 349.671 8.30144 349.454 7.92887C349.244 7.54855 349.139 7.10224 349.139 6.58996C349.139 6.03888 349.252 5.56153 349.477 5.15791C349.702 4.7543 349.997 4.44383 350.362 4.2265C350.727 4.00141 351.119 3.89274 351.538 3.9005C352.143 3.90827 352.617 4.11007 352.958 4.50592C353.3 4.90177 353.47 5.46062 353.47 6.18247V6.39204H349.896V5.87976H352.702L352.574 6.03112V5.78662C352.574 5.33643 352.473 4.99104 352.271 4.75042C352.069 4.5098 351.794 4.3895 351.445 4.3895C351.227 4.3895 351.018 4.45547 350.816 4.58742C350.614 4.71161 350.451 4.90566 350.327 5.16956C350.203 5.4257 350.141 5.75169 350.141 6.14754V6.28725C350.141 6.92372 350.296 7.42048 350.606 7.77752C350.925 8.13456 351.332 8.31308 351.829 8.31308C352.101 8.31308 352.345 8.25875 352.562 8.15008C352.78 8.04142 352.989 7.86678 353.191 7.62616L353.482 7.89394C353.265 8.29756 352.989 8.60027 352.656 8.80207C352.322 8.99612 351.949 9.09314 351.538 9.09314ZM354.216 9L354.192 8.56922L354.949 8.40622C354.965 8.32861 354.976 8.20054 354.984 8.02201C354.992 7.84349 354.996 7.60676 354.996 7.31181C355.003 7.01686 355.007 6.65594 355.007 6.22904V4.7737C355.007 4.47876 355.003 4.17605 354.996 3.86558C354.996 3.5551 354.992 3.26404 354.984 2.99237C354.984 2.71295 354.98 2.47621 354.972 2.28217C354.972 2.08036 354.969 1.94841 354.961 1.88632L354.099 1.76989L354.076 1.39733L355.741 0.919976L355.962 1.08297C355.954 1.40897 355.947 1.73496 355.939 2.06096C355.931 2.38695 355.923 2.74788 355.915 3.14373C355.915 3.53958 355.915 4.01693 355.915 4.57578L355.904 6.45025C355.904 6.9082 355.908 7.32345 355.915 7.69602C355.931 8.06082 355.947 8.29756 355.962 8.40622L356.719 8.56922L356.696 9H354.216ZM362.319 8.18501L363.052 8.37129V8.7555L361.539 9.12807L361.364 8.97671L361.376 8.24323L361.341 8.23158C361.116 8.54982 360.883 8.77491 360.642 8.90686C360.41 9.03105 360.157 9.09314 359.886 9.09314C359.366 9.09314 358.931 8.93402 358.582 8.61579C358.232 8.2898 358.058 7.80468 358.058 7.16046V6.15918C358.058 5.94185 358.05 5.73229 358.034 5.53048C358.027 5.32091 358.015 5.11134 358 4.90177L357.208 4.73878V4.35457L358.791 3.92379L359.001 4.11007C358.985 4.35069 358.974 4.60683 358.966 4.87849C358.958 5.15015 358.954 5.43346 358.954 5.72841L358.943 7.0091C358.943 7.49033 359.055 7.83573 359.28 8.0453C359.505 8.24711 359.792 8.34801 360.142 8.34801C360.351 8.34801 360.565 8.29368 360.782 8.18501C360.999 8.07635 361.19 7.89006 361.353 7.62616V6.27561C361.353 6.10485 361.349 5.93797 361.341 5.77498C361.341 5.60422 361.337 5.4451 361.329 5.29763C361.322 5.14239 361.31 5.01044 361.294 4.90177L360.444 4.73878V4.35457L362.086 3.92379L362.261 4.08679C362.253 4.30412 362.245 4.49816 362.237 4.66892C362.237 4.83968 362.237 5.01044 362.237 5.1812C362.237 5.3442 362.237 5.53048 362.237 5.74005V6.56668C362.237 6.99358 362.245 7.33898 362.261 7.60288C362.284 7.85902 362.303 8.05306 362.319 8.18501ZM365.625 9.09314C365.315 9.09314 365.039 9.03105 364.799 8.90686C364.558 8.78267 364.368 8.62355 364.228 8.42951C364.096 8.23546 364.03 8.03366 364.03 7.82409C364.03 7.56019 364.116 7.34286 364.287 7.1721C364.457 7.00134 364.737 6.85386 365.125 6.72968L366.895 6.1359V5.54212C366.895 5.34808 366.836 5.17344 366.72 5.0182C366.603 4.8552 366.448 4.72713 366.254 4.63399C366.06 4.54085 365.843 4.49428 365.602 4.49428C365.408 4.49428 365.276 4.53697 365.206 4.62235C365.136 4.69997 365.094 4.85908 365.078 5.0997L365.055 5.58869C364.776 5.65079 364.539 5.64303 364.345 5.56541C364.151 5.48003 364.054 5.3442 364.054 5.15791C364.054 5.02596 364.108 4.89401 364.217 4.76206C364.333 4.63011 364.484 4.50592 364.671 4.3895C364.857 4.26531 365.059 4.16052 365.276 4.07514C365.494 3.98976 365.707 3.93155 365.917 3.9005C366.491 3.9005 366.949 4.05186 367.29 4.35457C367.64 4.65728 367.818 5.05313 367.826 5.54212L367.803 7.49809C367.803 7.64557 367.807 7.78916 367.814 7.92887C367.83 8.06859 367.849 8.17337 367.872 8.24323L368.618 8.38294V8.74386L368.047 8.95343C367.938 8.99224 367.838 9.02329 367.744 9.04657C367.651 9.07762 367.574 9.09314 367.512 9.09314C367.271 9.09314 367.116 8.95731 367.046 8.68565L366.918 8.23158H367.092C366.836 8.51877 366.588 8.7361 366.347 8.88357C366.114 9.02329 365.874 9.09314 365.625 9.09314ZM365.94 8.40622C366.118 8.40622 366.285 8.36741 366.44 8.2898C366.596 8.20442 366.747 8.07635 366.895 7.90559V6.68311L365.591 7.03239C365.404 7.07896 365.268 7.15269 365.183 7.2536C365.105 7.3545 365.067 7.48257 365.067 7.63781C365.067 7.83185 365.152 8.01037 365.323 8.17337C365.501 8.32861 365.707 8.40622 365.94 8.40622ZM369.246 9L369.211 8.58086L369.933 8.40622C369.941 8.36741 369.949 8.29756 369.957 8.19665C369.964 8.09575 369.968 7.95992 369.968 7.78916C369.976 7.6184 369.98 7.40883 369.98 7.16046L369.991 6.25233C369.991 5.99619 369.98 5.74393 369.957 5.49555C369.941 5.24717 369.922 5.04925 369.898 4.90177L369.153 4.73878V4.35457L370.713 3.92379L370.876 4.08679L370.83 5.06477L370.865 5.07641C371.098 4.62623 371.334 4.32352 371.575 4.16829C371.815 4.00529 372.041 3.92379 372.25 3.92379C372.429 3.92379 372.576 3.97036 372.693 4.0635C372.817 4.14888 372.879 4.28083 372.879 4.45935C372.879 4.64564 372.813 4.78923 372.681 4.89013C372.557 4.98327 372.398 5.02984 372.204 5.02984C372.064 5.02984 371.928 4.9988 371.796 4.9367C371.672 4.87461 371.552 4.78923 371.435 4.68056L371.645 4.75042C371.497 4.84356 371.358 4.97551 371.226 5.14627C371.094 5.30927 370.973 5.51496 370.865 5.76333L370.876 6.8461C370.884 7.04015 370.892 7.24195 370.9 7.45152C370.907 7.66109 370.915 7.85125 370.923 8.02201C370.931 8.18501 370.938 8.31308 370.946 8.40622L371.959 8.55758L371.936 9H369.246ZM328.835 18L328.811 17.5576L329.382 17.3946L331.78 11.3637L332.455 10.9562L334.994 17.3946L335.576 17.5576L335.541 18H333.189L333.166 17.5576L333.876 17.3946L333.189 15.6715L333.061 15.3105L331.792 12.1437L332.06 11.9924L330.849 15.3105L330.721 15.6598L330.104 17.3946L330.814 17.5576L330.791 18H328.835ZM330.465 15.8461V15.229C330.612 15.2368 330.814 15.2446 331.07 15.2523C331.326 15.2601 331.64 15.264 332.013 15.264C332.378 15.264 332.688 15.2601 332.944 15.2523C333.208 15.2446 333.41 15.2368 333.55 15.229V15.8461C333.286 15.8383 333.022 15.8345 332.758 15.8345C332.502 15.8267 332.254 15.8228 332.013 15.8228C331.78 15.8228 331.536 15.8267 331.28 15.8345C331.031 15.8345 330.759 15.8383 330.465 15.8461ZM335.96 18L335.925 17.5809L336.647 17.4062C336.655 17.3674 336.662 17.2976 336.67 17.1967C336.678 17.0958 336.682 16.9599 336.682 16.7892C336.69 16.6184 336.693 16.4088 336.693 16.1605L336.705 15.2523C336.705 14.9962 336.693 14.7439 336.67 14.4956C336.655 14.2472 336.635 14.0492 336.612 13.9018L335.867 13.7388V13.3546L337.427 12.9238L337.59 13.0868L337.543 14.0648L337.578 14.0764C337.811 13.6262 338.048 13.3235 338.288 13.1683C338.529 13.0053 338.754 12.9238 338.964 12.9238C339.142 12.9238 339.29 12.9704 339.406 13.0635C339.53 13.1489 339.592 13.2808 339.592 13.4594C339.592 13.6456 339.526 13.7892 339.394 13.8901C339.27 13.9833 339.111 14.0298 338.917 14.0298C338.777 14.0298 338.642 13.9988 338.51 13.9367C338.385 13.8746 338.265 13.7892 338.149 13.6806L338.358 13.7504C338.211 13.8436 338.071 13.9755 337.939 14.1463C337.807 14.3093 337.687 14.515 337.578 14.7633L337.59 15.8461C337.598 16.0401 337.605 16.242 337.613 16.4515C337.621 16.6611 337.629 16.8513 337.636 17.022C337.644 17.185 337.652 17.3131 337.66 17.4062L338.673 17.5576L338.649 18H335.96ZM342.445 18.0931C341.995 18.0931 341.587 17.9922 341.222 17.7904C340.865 17.5886 340.578 17.3014 340.361 16.9289C340.151 16.5485 340.046 16.1022 340.046 15.59C340.046 15.0389 340.159 14.5615 340.384 14.1579C340.609 13.7543 340.904 13.4438 341.269 13.2265C341.634 13.0014 342.026 12.8927 342.445 12.9005C343.05 12.9083 343.524 13.1101 343.865 13.5059C344.207 13.9018 344.378 14.4606 344.378 15.1825V15.392H340.803V14.8798H343.609L343.481 15.0311V14.7866C343.481 14.3364 343.38 13.991 343.178 13.7504C342.977 13.5098 342.701 13.3895 342.352 13.3895C342.134 13.3895 341.925 13.4555 341.723 13.5874C341.521 13.7116 341.358 13.9057 341.234 14.1696C341.11 14.4257 341.048 14.7517 341.048 15.1475V15.2873C341.048 15.9237 341.203 16.4205 341.513 16.7775C341.832 17.1346 342.239 17.3131 342.736 17.3131C343.008 17.3131 343.252 17.2587 343.469 17.1501C343.687 17.0414 343.896 16.8668 344.098 16.6262L344.389 16.8939C344.172 17.2976 343.896 17.6003 343.563 17.8021C343.229 17.9961 342.856 18.0931 342.445 18.0931ZM347.079 18.0931C346.768 18.0931 346.493 18.031 346.252 17.9069C346.011 17.7827 345.821 17.6236 345.682 17.4295C345.55 17.2355 345.484 17.0337 345.484 16.8241C345.484 16.5602 345.569 16.3429 345.74 16.1721C345.911 16.0013 346.19 15.8539 346.578 15.7297L348.348 15.1359V14.5421C348.348 14.3481 348.289 14.1734 348.173 14.0182C348.057 13.8552 347.901 13.7271 347.707 13.634C347.513 13.5409 347.296 13.4943 347.055 13.4943C346.861 13.4943 346.729 13.537 346.66 13.6224C346.59 13.7 346.547 13.8591 346.531 14.0997L346.508 14.5887C346.229 14.6508 345.992 14.643 345.798 14.5654C345.604 14.48 345.507 14.3442 345.507 14.1579C345.507 14.026 345.561 13.894 345.67 13.7621C345.786 13.6301 345.938 13.5059 346.124 13.3895C346.31 13.2653 346.512 13.1605 346.729 13.0751C346.947 12.9898 347.16 12.9316 347.37 12.9005C347.944 12.9005 348.402 13.0519 348.744 13.3546C349.093 13.6573 349.271 14.0531 349.279 14.5421L349.256 16.4981C349.256 16.6456 349.26 16.7892 349.267 16.9289C349.283 17.0686 349.302 17.1734 349.326 17.2432L350.071 17.3829V17.7439L349.5 17.9534C349.392 17.9922 349.291 18.0233 349.198 18.0466C349.104 18.0776 349.027 18.0931 348.965 18.0931C348.724 18.0931 348.569 17.9573 348.499 17.6856L348.371 17.2316H348.546C348.289 17.5188 348.041 17.7361 347.801 17.8836C347.568 18.0233 347.327 18.0931 347.079 18.0931ZM347.393 17.4062C347.572 17.4062 347.738 17.3674 347.894 17.2898C348.049 17.2044 348.2 17.0763 348.348 16.9056V15.6831L347.044 16.0324C346.857 16.079 346.722 16.1527 346.636 16.2536C346.559 16.3545 346.52 16.4826 346.52 16.6378C346.52 16.8319 346.605 17.0104 346.776 17.1734C346.954 17.3286 347.16 17.4062 347.393 17.4062ZM352.586 18L352.562 17.5576L353.133 17.3946L355.531 11.3637L356.207 10.9562L358.745 17.3946L359.327 17.5576L359.292 18H356.94L356.917 17.5576L357.627 17.3946L356.94 15.6715L356.812 15.3105L355.543 12.1437L355.811 11.9924L354.6 15.3105L354.472 15.6598L353.855 17.3946L354.565 17.5576L354.542 18H352.586ZM354.216 15.8461V15.229C354.363 15.2368 354.565 15.2446 354.821 15.2523C355.077 15.2601 355.392 15.264 355.764 15.264C356.129 15.264 356.439 15.2601 356.696 15.2523C356.959 15.2446 357.161 15.2368 357.301 15.229V15.8461C357.037 15.8383 356.773 15.8345 356.509 15.8345C356.253 15.8267 356.005 15.8228 355.764 15.8228C355.531 15.8228 355.287 15.8267 355.031 15.8345C354.782 15.8345 354.511 15.8383 354.216 15.8461Z" fill="black"/>
<path fill-rule="evenodd" clip-rule="evenodd" d="M344.033 58.1243C345.332 57.0179 346.541 55.8089 347.647 54.5089C349.977 51.7643 351.428 49.0315 351.599 46.5661C351.667 45.564 351.533 44.5586 351.204 43.6097C350.875 42.6607 350.358 41.7879 349.684 41.0432C349.01 40.2986 348.193 39.6974 347.281 39.2756C346.37 38.8538 345.383 38.62 344.379 38.5882C343.375 38.5565 342.375 38.7274 341.439 39.0907C340.503 39.454 339.649 40.0023 338.929 40.7029C338.21 41.4035 337.639 42.2419 337.25 43.1681C336.862 44.0943 336.664 45.0893 336.669 46.0936C336.684 48.5649 337.961 51.384 340.111 54.2704C341.133 55.6377 342.263 56.9208 343.49 58.1072C343.608 58.2209 343.696 58.3036 343.754 58.3552L344.033 58.1243ZM342.91 59.3699C342.91 59.3699 335.145 52.3989 335.355 45.7881C335.428 43.4573 336.425 41.2514 338.125 39.6554C339.826 38.0595 342.09 37.2043 344.421 37.2781C346.752 37.3519 348.958 38.3485 350.554 40.0487C352.149 41.749 353.005 44.0136 352.931 46.3443C352.722 52.9551 344.532 59.4212 344.532 59.4212C344.075 59.8158 343.345 59.7883 342.91 59.3699ZM344.045 49.142C344.861 49.1678 345.654 48.8685 346.249 48.31C346.844 47.7514 347.193 46.9793 347.219 46.1635C347.244 45.3478 346.945 44.5552 346.387 43.9601C345.828 43.365 345.056 43.0162 344.24 42.9904C343.424 42.9645 342.632 43.2639 342.037 43.8224C341.442 44.381 341.093 45.1531 341.067 45.9689C341.041 46.7846 341.34 47.5772 341.899 48.1723C342.458 48.7674 343.23 49.1162 344.045 49.142ZM344.004 50.4602C342.838 50.4234 341.735 49.925 340.937 49.0749C340.139 48.2248 339.712 47.0925 339.749 45.9271C339.786 44.7618 340.284 43.6588 341.134 42.8608C341.984 42.0628 343.116 41.6353 344.282 41.6722C345.447 41.709 346.55 42.2073 347.348 43.0575C348.146 43.9076 348.574 45.0399 348.537 46.2053C348.5 47.3706 348.002 48.4736 347.152 49.2716C346.301 50.0695 345.169 50.4971 344.004 50.4602Z" fill="#F83838"/>
<path d="M348.447 93.3092L353.922 87.834M353.922 87.834L348.447 82.3587M353.922 87.834L340.781 87.834M340.781 97.6894L336.401 97.6894C335.82 97.6894 335.263 97.4587 334.852 97.0479C334.442 96.6372 334.211 96.0802 334.211 95.4993L334.211 80.1686C334.211 79.5878 334.442 79.0307 334.852 78.62C335.263 78.2093 335.82 77.9785 336.401 77.9785L340.781 77.9785" stroke="black" stroke-width="2.64936" stroke-linecap="round" stroke-linejoin="round"/>
<path d="M197.596 164.025C197.598 164.256 197.585 164.484 197.558 164.709C198.722 165.348 199.603 166.4 200.028 167.658C200.452 168.916 200.39 170.287 199.852 171.501C199.314 172.714 198.34 173.682 197.122 174.212C195.905 174.741 194.534 174.795 193.279 174.362L193.307 177.313L191.541 177.33L191.51 174.151C190.497 174.681 189.33 174.836 188.213 174.59C187.097 174.344 186.103 173.712 185.407 172.805C184.711 171.898 184.357 170.775 184.407 169.633C184.457 168.491 184.909 167.403 185.682 166.561C186.036 167.503 186.587 168.358 187.299 169.069L188.548 167.821C187.568 166.839 187.012 165.513 186.999 164.126C186.985 162.721 187.531 161.368 188.515 160.365C189.499 159.362 190.841 158.79 192.246 158.777C193.652 158.764 195.005 159.309 196.008 160.293C197.011 161.277 197.582 162.62 197.596 164.025Z" fill="#2C5107"/>
<path d="M222.682 164.025C222.684 164.256 222.671 164.484 222.644 164.709C223.808 165.348 224.689 166.4 225.114 167.658C225.538 168.916 225.475 170.287 224.937 171.501C224.399 172.714 223.426 173.682 222.208 174.212C220.991 174.741 219.619 174.795 218.365 174.362L218.393 177.313L216.627 177.33L216.596 174.151C215.583 174.681 214.416 174.836 213.299 174.59C212.183 174.344 211.189 173.712 210.493 172.805C209.797 171.898 209.443 170.775 209.493 169.633C209.543 168.491 209.995 167.403 210.768 166.561C211.122 167.503 211.673 168.358 212.384 169.069L213.634 167.821C212.654 166.839 212.098 165.513 212.085 164.126C212.071 162.721 212.617 161.368 213.601 160.365C214.585 159.362 215.927 158.79 217.332 158.777C218.738 158.764 220.091 159.309 221.094 160.293C222.097 161.277 222.668 162.62 222.682 164.025Z" fill="#2C5107"/>
<path d="M247.768 164.025C247.77 164.256 247.757 164.484 247.73 164.709C248.893 165.348 249.775 166.4 250.2 167.658C250.624 168.916 250.561 170.287 250.023 171.501C249.485 172.714 248.511 173.682 247.294 174.212C246.077 174.741 244.705 174.795 243.451 174.362L243.479 177.313L241.713 177.33L241.682 174.151C240.669 174.681 239.502 174.836 238.385 174.59C237.269 174.344 236.275 173.712 235.579 172.805C234.883 171.898 234.528 170.775 234.579 169.633C234.629 168.491 235.081 167.403 235.854 166.561C236.208 167.503 236.759 168.358 237.47 169.069L238.72 167.821C237.74 166.839 237.184 165.513 237.171 164.126C237.157 162.721 237.702 161.368 238.687 160.365C239.671 159.362 241.013 158.79 242.418 158.777C243.824 158.764 245.177 159.309 246.18 160.293C247.183 161.277 247.754 162.62 247.768 164.025Z" fill="#2C5107"/>
<path d="M272.853 164.025C272.856 164.256 272.843 164.484 272.816 164.709C273.979 165.348 274.861 166.4 275.285 167.658C275.71 168.916 275.647 170.287 275.109 171.501C274.571 172.714 273.597 173.682 272.38 174.212C271.163 174.741 269.791 174.795 268.537 174.362L268.565 177.313L266.799 177.33L266.768 174.151C265.755 174.681 264.588 174.836 263.471 174.59C262.355 174.344 261.361 173.712 260.665 172.805C259.969 171.898 259.614 170.775 259.665 169.633C259.715 168.491 260.167 167.403 260.94 166.561C261.294 167.503 261.845 168.358 262.556 169.069L263.806 167.821C262.826 166.839 262.269 165.513 262.256 164.126C262.243 162.721 262.788 161.368 263.773 160.365C264.757 159.362 266.099 158.79 267.504 158.777C268.91 158.764 270.263 159.309 271.266 160.293C272.269 161.277 272.84 162.62 272.853 164.025Z" fill="#2C5107"/>
<defs>
<filter id="filter0_d_228_3635" x="78.795" y="386.782" width="196.004" height="87.4534" filterUnits="userSpaceOnUse" color-interpolation-filters="sRGB">
<feFlood flood-opacity="0" result="BackgroundImageFix"/>
<feColorMatrix in="SourceAlpha" type="matrix" values="0 0 0 0 0 0 0 0 0 0 0 0 0 0 0 0 0 0 127 0" result="hardAlpha"/>
<feOffset dy="5.29872"/>
<feGaussianBlur stdDeviation="2.64936"/>
<feComposite in2="hardAlpha" operator="out"/>
<feColorMatrix type="matrix" values="0 0 0 0 0 0 0 0 0 0 0 0 0 0 0 0 0 0 0.25 0"/>
<feBlend mode="normal" in2="BackgroundImageFix" result="effect1_dropShadow_228_3635"/>
<feBlend mode="normal" in="SourceGraphic" in2="effect1_dropShadow_228_3635" result="shape"/>
</filter>
<filter id="filter1_d_228_3635" x="60.9357" y="27.8181" width="80.8084" height="300.702" filterUnits="userSpaceOnUse" color-interpolation-filters="sRGB">
<feFlood flood-opacity="0" result="BackgroundImageFix"/>
<feColorMatrix in="SourceAlpha" type="matrix" values="0 0 0 0 0 0 0 0 0 0 0 0 0 0 0 0 0 0 127 0" result="hardAlpha"/>
<feOffset dy="5.29872"/>
<feGaussianBlur stdDeviation="2.64936"/>
<feComposite in2="hardAlpha" operator="out"/>
<feColorMatrix type="matrix" values="0 0 0 0 0 0 0 0 0 0 0 0 0 0 0 0 0 0 0.25 0"/>
<feBlend mode="normal" in2="BackgroundImageFix" result="effect1_dropShadow_228_3635"/>
<feBlend mode="normal" in="SourceGraphic" in2="effect1_dropShadow_228_3635" result="shape"/>
</filter>
<filter id="filter2_d_228_3635" x="135.115" y="0" width="172.871" height="79.4807" filterUnits="userSpaceOnUse" color-interpolation-filters="sRGB">
<feFlood flood-opacity="0" result="BackgroundImageFix"/>
<feColorMatrix in="SourceAlpha" type="matrix" values="0 0 0 0 0 0 0 0 0 0 0 0 0 0 0 0 0 0 127 0" result="hardAlpha"/>
<feOffset dy="5.29872"/>
<feGaussianBlur stdDeviation="2.64936"/>
<feComposite in2="hardAlpha" operator="out"/>
<feColorMatrix type="matrix" values="0 0 0 0 0 0 0 0 0 0 0 0 0 0 0 0 0 0 0.25 0"/>
<feBlend mode="normal" in2="BackgroundImageFix" result="effect1_dropShadow_228_3635"/>
<feBlend mode="normal" in="SourceGraphic" in2="effect1_dropShadow_228_3635" result="shape"/>
</filter>
<filter id="filter3_d_228_3635" x="127.17" y="258.312" width="157.66" height="79.4807" filterUnits="userSpaceOnUse" color-interpolation-filters="sRGB">
<feFlood flood-opacity="0" result="BackgroundImageFix"/>
<feColorMatrix in="SourceAlpha" type="matrix" values="0 0 0 0 0 0 0 0 0 0 0 0 0 0 0 0 0 0 127 0" result="hardAlpha"/>
<feOffset dy="5.29872"/>
<feGaussianBlur stdDeviation="2.64936"/>
<feComposite in2="hardAlpha" operator="out"/>
<feColorMatrix type="matrix" values="0 0 0 0 0 0 0 0 0 0 0 0 0 0 0 0 0 0 0.25 0"/>
<feBlend mode="normal" in2="BackgroundImageFix" result="effect1_dropShadow_228_3635"/>
<feBlend mode="normal" in="SourceGraphic" in2="effect1_dropShadow_228_3635" result="shape"/>
</filter>
<filter id="filter4_d_228_3635" x="-0.00184059" y="26" width="32.4568" height="347.728" filterUnits="userSpaceOnUse" color-interpolation-filters="sRGB">
<feFlood flood-opacity="0" result="BackgroundImageFix"/>
<feColorMatrix in="SourceAlpha" type="matrix" values="0 0 0 0 0 0 0 0 0 0 0 0 0 0 0 0 0 0 127 0" result="hardAlpha"/>
<feOffset dy="5.29872"/>
<feGaussianBlur stdDeviation="2.64936"/>
<feComposite in2="hardAlpha" operator="out"/>
<feColorMatrix type="matrix" values="0 0 0 0 0 0 0 0 0 0 0 0 0 0 0 0 0 0 0.25 0"/>
<feBlend mode="normal" in2="BackgroundImageFix" result="effect1_dropShadow_228_3635"/>
<feBlend mode="normal" in="SourceGraphic" in2="effect1_dropShadow_228_3635" result="shape"/>
</filter>
<filter id="filter5_d_228_3635" x="1.32628" y="451.053" width="56.3006" height="64.2468" filterUnits="userSpaceOnUse" color-interpolation-filters="sRGB">
<feFlood flood-opacity="0" result="BackgroundImageFix"/>
<feColorMatrix in="SourceAlpha" type="matrix" values="0 0 0 0 0 0 0 0 0 0 0 0 0 0 0 0 0 0 127 0" result="hardAlpha"/>
<feOffset dy="5.29872"/>
<feGaussianBlur stdDeviation="2.64936"/>
<feComposite in2="hardAlpha" operator="out"/>
<feColorMatrix type="matrix" values="0 0 0 0 0 0 0 0 0 0 0 0 0 0 0 0 0 0 0.25 0"/>
<feBlend mode="normal" in2="BackgroundImageFix" result="effect1_dropShadow_228_3635"/>
<feBlend mode="normal" in="SourceGraphic" in2="effect1_dropShadow_228_3635" result="shape"/>
</filter>
</defs>
</svg>
